# xmcd CD database file
#
# Track frame offsets:
#	150
#	19816
#	37814
#	56874
#	83076
#	107900
#	123929
#	144708
#	166285
#	193460
#	216471
#	238430
#	259486
#
# Disc length: 3703 seconds
#
# Revision: 0
# Processed by: cddbd v1.5.2PL0 Copyright (c) Steve Scherf et al.
# Submitted via: CDex 1.51
#
DISCID=cb0e750d
DTITLE=Bobby Parker - Bent Out Of Shape
DYEAR=1900
DGENRE=Blues
TTITLE0=Fast Train
TTITLE1=It's Hard But It's Fair
TTITLE2=Bent Out Of Shape
TTITLE3=So Glad I Found You
TTITLE4=I Call Her Baby
TTITLE5=Watch Your Step
TTITLE6=Break It Up
TTITLE7=Let That Be The Reason
TTITLE8=I've Got A Way With Women
TTITLE9=Bobby-A-Go-Go
TTITLE10=Blues Get Off My Shoulder
TTITLE11=Bobby-Q
TTITLE12=Moving Up
EXTD=
EXTT0=
EXTT1=
EXTT2=
EXTT3=
EXTT4=
EXTT5=
EXTT6=
EXTT7=
EXTT8=
EXTT9=
EXTT10=
EXTT11=
EXTT12=
PLAYORDER=
